<svg fill="#CCCCCC" xmlns="http://www.w3.org/2000/svg" xmlns:xlink="http://www.w3.org/1999/xlink" version="1.1" id="Your_Icon" x="0px" y="0px" width="100px" height="100px" viewBox="0 0 100 100" enable-background="new 0 0 100 100" xml:space="preserve">
<path d="M34.723,84.724C15.577,84.724,0,69.146,0,50s15.577-34.724,34.723-34.724l17.434,0.019l2.771,2.771l2.765-2.764L100,15.349  v31.707H69.322c0.082,0.979,0.123,1.962,0.123,2.944C69.445,69.146,53.869,84.724,34.723,84.724z M34.718,24.12  C20.453,24.12,8.843,35.73,8.843,50s11.609,25.88,25.879,25.88c14.27,0,25.879-11.61,25.879-25.88c0-2.126-0.26-4.243-0.771-6.296  l-1.369-5.491h32.695v-14.03L61.352,24.15l-6.426,6.424l-6.437-6.439L34.718,24.12z"/>
</svg>